HIERARCHY
ROOT Hips
{
	OFFSET 0.000000 71.427986 0.000000
	CHANNELS 6 Xposition Yposition Zposition Xrotation Yrotation Zrotation
	JOINT Pelvis
	{
		OFFSET 0.000000 0.000000 0.000000
		CHANNELS 3 Xrotation Yrotation Zrotation
		JOINT LeftUpLeg
		{
			OFFSET 6.797100 -2.508499 -1.318700
			CHANNELS 3 Xrotation Yrotation Zrotation
			JOINT LeftLeg
			{
				OFFSET 0.069008 -29.241863 0.690200
				CHANNELS 3 Xrotation Yrotation Zrotation
				JOINT LeftFoot
				{
					OFFSET -0.069008 -29.568123 -0.266800
					CHANNELS 3 Xrotation Yrotation Zrotation
					JOINT LeftToeBase
					{
						OFFSET 3.145500 -8.631000 16.059900
						CHANNELS 3 Xrotation Yrotation Zrotation
						End Site
						{
							OFFSET 0.000000 18.501587 0.000000
						}
					}
				}
			}
			JOINT Left_ShortSleeve
			{
				OFFSET 0.265923 -10.480953 1.153800
				CHANNELS 3 Xrotation Yrotation Zrotation
				End Site
				{
					OFFSET 1.725763 19.823879 0.000000
				}
			}
		}
		JOINT RightUpLeg
		{
			OFFSET -6.797100 -2.508499 -1.318700
			CHANNELS 3 Xrotation Yrotation Zrotation
			JOINT RightLeg
			{
				OFFSET -0.082453 -29.241932 0.688000
				CHANNELS 3 Xrotation Yrotation Zrotation
				JOINT RightFoot
				{
					OFFSET 0.082453 -29.568058 -0.264600
					CHANNELS 3 Xrotation Yrotation Zrotation
					JOINT RightToeBase
					{
						OFFSET -3.115300 -8.682800 16.113400
						CHANNELS 3 Xrotation Yrotation Zrotation
						End Site
						{
							OFFSET 0.000000 18.567114 0.000000
						}
					}
				}
			}
			JOINT Right_ShortSleeve
			{
				OFFSET -0.265923 -10.480953 1.153800
				CHANNELS 3 Xrotation Yrotation Zrotation
				End Site
				{
					OFFSET -1.725766 19.823910 0.000000
				}
			}
		}
	}
	JOINT Spine
	{
		OFFSET 0.000000 13.368103 0.470500
		CHANNELS 3 Xrotation Yrotation Zrotation
		JOINT Spine1
		{
			OFFSET 0.147000 13.837402 0.538800
			CHANNELS 3 Xrotation Yrotation Zrotation
			JOINT Spine2
			{
				OFFSET 0.168000 16.242897 -1.435500
				CHANNELS 3 Xrotation Yrotation Zrotation
				JOINT Neck
				{
					OFFSET 0.217200 18.631500 -1.679100
					CHANNELS 3 Xrotation Yrotation Zrotation
					JOINT Head
					{
						OFFSET 0.000000 6.599396 1.385900
						CHANNELS 3 Xrotation Yrotation Zrotation
						JOINT Hat
						{
							OFFSET -0.532200 27.220596 -10.096100
							CHANNELS 3 Xrotation Yrotation Zrotation
							End Site
							{
								OFFSET 0.000000 22.029861 0.000000
							}
						}
						JOINT HairD
						{
							OFFSET -10.777400 17.437393 -1.325900
							CHANNELS 3 Xrotation Yrotation Zrotation
							JOINT HairD1
							{
								OFFSET -3.290299 -11.051193 1.062200
								CHANNELS 3 Xrotation Yrotation Zrotation
								End Site
								{
									OFFSET 0.000000 11.579437 0.000000
								}
							}
						}
						JOINT HairB
						{
							OFFSET -10.777400 17.437393 1.467900
							CHANNELS 3 Xrotation Yrotation Zrotation
							JOINT HairB1
							{
								OFFSET -1.561200 -12.956299 3.590200
								CHANNELS 3 Xrotation Yrotation Zrotation
								End Site
								{
									OFFSET 0.000000 13.534866 0.000000
								}
							}
						}
						JOINT HairA
						{
							OFFSET 9.713100 17.437393 1.467900
							CHANNELS 3 Xrotation Yrotation Zrotation
							JOINT HairA1
							{
								OFFSET 1.561200 -12.956299 3.590200
								CHANNELS 3 Xrotation Yrotation Zrotation
								End Site
								{
									OFFSET 0.000000 13.534866 0.000000
								}
							}
						}
						JOINT HairC
						{
							OFFSET 9.713100 17.437393 -1.325900
							CHANNELS 3 Xrotation Yrotation Zrotation
							JOINT HairC1
							{
								OFFSET 3.290300 -11.051193 1.062200
								CHANNELS 3 Xrotation Yrotation Zrotation
								End Site
								{
									OFFSET 0.000000 11.579437 0.000000
								}
							}
						}
					}
				}
				JOINT LeftShoulder
				{
					OFFSET 5.101800 15.108002 -2.763700
					CHANNELS 3 Xrotation Yrotation Zrotation
					JOINT LeftArm
					{
						OFFSET 9.825497 2.506317 -1.597400
						CHANNELS 3 Xrotation Yrotation Zrotation
						JOINT LeftForeArm
						{
							OFFSET 21.966244 0.000000 0.000000
							CHANNELS 3 Xrotation Yrotation Zrotation
							JOINT LeftHand
							{
								OFFSET 33.879036 0.000000 0.000000
								CHANNELS 3 Xrotation Yrotation Zrotation
								JOINT LeftHandThumb1
								{
									OFFSET 6.715286 -2.359680 3.363841
									CHANNELS 3 Xrotation Yrotation Zrotation
									JOINT LeftHandThumb2
									{
										OFFSET 2.507072 -1.447464 1.447461
										CHANNELS 3 Xrotation Yrotation Zrotation
										JOINT LeftHandThumb3
										{
											OFFSET 2.898338 -1.673355 1.673357
											CHANNELS 3 Xrotation Yrotation Zrotation
											End Site
											{
												OFFSET -0.295959 3.727692 -0.131651
											}
										}
									}
								}
								JOINT LeftHandIndex1
								{
									OFFSET 14.190811 -0.254547 3.840278
									CHANNELS 3 Xrotation Yrotation Zrotation
									JOINT LeftHandIndex2
									{
										OFFSET 3.551727 0.000000 -0.000000
										CHANNELS 3 Xrotation Yrotation Zrotation
										JOINT LeftHandIndex3
										{
											OFFSET 2.894196 0.000000 0.000000
											CHANNELS 3 Xrotation Yrotation Zrotation
											End Site
											{
												OFFSET -1.000603 2.690872 0.366626
											}
										}
									}
								}
								JOINT LeftHandMiddle1
								{
									OFFSET 13.776489 0.000000 0.000000
									CHANNELS 3 Xrotation Yrotation Zrotation
									JOINT LeftHandMiddle2
									{
										OFFSET 3.438232 0.000000 0.000000
										CHANNELS 3 Xrotation Yrotation Zrotation
										JOINT LeftHandMiddle3
										{
											OFFSET 3.691551 0.000000 0.000000
											CHANNELS 3 Xrotation Yrotation Zrotation
											End Site
											{
												OFFSET -1.082298 3.499527 0.457670
											}
										}
									}
								}
								JOINT LeftHandRing1
								{
									OFFSET 13.966164 -0.268127 -3.067488
									CHANNELS 3 Xrotation Yrotation Zrotation
									JOINT LeftHandRing2
									{
										OFFSET 3.162567 0.000000 0.000000
										CHANNELS 3 Xrotation Yrotation Zrotation
										JOINT LeftHandRing3
										{
											OFFSET 3.324348 0.000000 0.000000
											CHANNELS 3 Xrotation Yrotation Zrotation
											End Site
											{
												OFFSET -0.861900 3.184998 0.405154
											}
										}
									}
								}
								JOINT LeftHandPinky1
								{
									OFFSET 13.131393 -0.168503 -5.746925
									CHANNELS 3 Xrotation Yrotation Zrotation
									JOINT LeftHandPinky2
									{
										OFFSET 2.849182 0.000000 0.000000
										CHANNELS 3 Xrotation Yrotation Zrotation
										JOINT LeftHandPinky3
										{
											OFFSET 2.805038 0.000000 0.000000
											CHANNELS 3 Xrotation Yrotation Zrotation
											End Site
											{
												OFFSET -0.882500 2.642609 0.325652
											}
										}
									}
								}
							}
							JOINT Left_Sleeve
							{
								OFFSET 6.592125 -0.646545 0.805568
								CHANNELS 3 Xrotation Yrotation Zrotation
								End Site
								{
									OFFSET -0.000179 20.275787 -0.000000
								}
							}
						}
					}
				}
				JOINT RightShoulder
				{
					OFFSET -5.731700 15.108002 -2.763700
					CHANNELS 3 Xrotation Yrotation Zrotation
					JOINT RightArm
					{
						OFFSET -9.825497 2.506317 -1.597400
						CHANNELS 3 Xrotation Yrotation Zrotation
						JOINT RightForeArm
						{
							OFFSET -21.966242 0.000000 0.000000
							CHANNELS 3 Xrotation Yrotation Zrotation
							JOINT RightHand
							{
								OFFSET -33.879032 0.000000 0.000000
								CHANNELS 3 Xrotation Yrotation Zrotation
								JOINT RightHandThumb1
								{
									OFFSET -6.715286 -2.359680 3.363841
									CHANNELS 3 Xrotation Yrotation Zrotation
									JOINT RightHandThumb2
									{
										OFFSET -2.507072 -1.447464 1.447461
										CHANNELS 3 Xrotation Yrotation Zrotation
										JOINT RightHandThumb3
										{
											OFFSET -2.898338 -1.673355 1.673357
											CHANNELS 3 Xrotation Yrotation Zrotation
											End Site
											{
												OFFSET 0.295959 3.727692 -0.131651
											}
										}
									}
								}
								JOINT RightHandIndex1
								{
									OFFSET -14.190811 -0.254547 3.840278
									CHANNELS 3 Xrotation Yrotation Zrotation
									JOINT RightHandIndex2
									{
										OFFSET -3.551727 0.000000 -0.000000
										CHANNELS 3 Xrotation Yrotation Zrotation
										JOINT RightHandIndex3
										{
											OFFSET -2.894196 0.000000 0.000000
											CHANNELS 3 Xrotation Yrotation Zrotation
											End Site
											{
												OFFSET 1.000603 2.690872 0.366626
											}
										}
									}
								}
								JOINT RightHandMiddle1
								{
									OFFSET -13.776489 0.000000 0.000000
									CHANNELS 3 Xrotation Yrotation Zrotation
									JOINT RightHandMiddle2
									{
										OFFSET -3.438232 0.000000 0.000000
										CHANNELS 3 Xrotation Yrotation Zrotation
										JOINT RightHandMiddle3
										{
											OFFSET -3.691551 0.000000 0.000000
											CHANNELS 3 Xrotation Yrotation Zrotation
											End Site
											{
												OFFSET 1.082298 3.499527 0.457670
											}
										}
									}
								}
								JOINT RightHandRing1
								{
									OFFSET -13.966164 -0.268127 -3.067488
									CHANNELS 3 Xrotation Yrotation Zrotation
									JOINT RightHandRing2
									{
										OFFSET -3.162567 0.000000 0.000000
										CHANNELS 3 Xrotation Yrotation Zrotation
										JOINT RightHandRing3
										{
											OFFSET -3.324348 0.000000 0.000000
											CHANNELS 3 Xrotation Yrotation Zrotation
											End Site
											{
												OFFSET 0.861900 3.184998 0.405154
											}
										}
									}
								}
								JOINT RightHandPinky1
								{
									OFFSET -13.131393 -0.168503 -5.746925
									CHANNELS 3 Xrotation Yrotation Zrotation
									JOINT RightHandPinky2
									{
										OFFSET -2.849182 0.000000 0.000000
										CHANNELS 3 Xrotation Yrotation Zrotation
										JOINT RightHandPinky3
										{
											OFFSET -2.805038 0.000000 0.000000
											CHANNELS 3 Xrotation Yrotation Zrotation
											End Site
											{
												OFFSET 0.882500 2.642609 0.325652
											}
										}
									}
								}
							}
							JOINT Right_Sleeve
							{
								OFFSET -6.592125 -0.646545 0.805568
								CHANNELS 3 Xrotation Yrotation Zrotation
								End Site
								{
									OFFSET 0.000179 20.275787 -0.000000
								}
							}
						}
					}
				}
				JOINT Bind_Right_JacketString
				{
					OFFSET -3.534800 11.969597 7.200700
					CHANNELS 3 Xrotation Yrotation Zrotation
					JOINT Bind_Right_JacketString1
					{
						OFFSET -0.319900 -6.102600 2.794100
						CHANNELS 3 Xrotation Yrotation Zrotation
						End Site
						{
							OFFSET 0.000000 6.719452 0.000000
						}
					}
				}
				JOINT Bind_Left_JacketString
				{
					OFFSET 2.904800 11.969597 7.200700
					CHANNELS 3 Xrotation Yrotation Zrotation
					JOINT Bind_Left_JacketString1
					{
						OFFSET 0.364800 -5.904503 3.186800
						CHANNELS 3 Xrotation Yrotation Zrotation
						End Site
						{
							OFFSET 0.000000 6.719513 0.000000
						}
					}
				}
				JOINT HairE
				{
					OFFSET 5.915200 17.612701 -11.592200
					CHANNELS 3 Xrotation Yrotation Zrotation
					JOINT HairE1
					{
						OFFSET 0.289200 -7.171898 -1.284500
						CHANNELS 3 Xrotation Yrotation Zrotation
						End Site
						{
							OFFSET 0.000000 7.291756 0.000000
						}
					}
				}
				JOINT HairF
				{
					OFFSET -0.864800 17.612701 -11.592200
					CHANNELS 3 Xrotation Yrotation Zrotation
					JOINT HairF1
					{
						OFFSET 0.000000 -14.087097 -2.127501
						CHANNELS 3 Xrotation Yrotation Zrotation
						End Site
						{
							OFFSET 0.000000 14.246841 0.000000
						}
					}
				}
				JOINT HairG
				{
					OFFSET -8.087700 17.612701 -11.592200
					CHANNELS 3 Xrotation Yrotation Zrotation
					JOINT HairG1
					{
						OFFSET -0.293600 -6.081398 -0.910100
						CHANNELS 3 Xrotation Yrotation Zrotation
						End Site
						{
							OFFSET 0.000000 6.156120 0.000000
						}
					}
				}
			}
		}
	}
	JOINT Pouch
	{
		OFFSET 0.000000 4.394501 10.847300
		CHANNELS 3 Xrotation Yrotation Zrotation
		End Site
		{
			OFFSET 0.000000 21.880577 0.000000
		}
	}
	JOINT Bag
	{
		OFFSET -13.229000 4.813004 -0.593300
		CHANNELS 3 Xrotation Yrotation Zrotation
		End Site
		{
			OFFSET 0.000000 21.880577 0.000000
		}
	}
	JOINT OccupyGuyFacialAnim_Joint
	{
		OFFSET 1.000000 -70.206398 -1.655000
		CHANNELS 3 Xrotation Yrotation Zrotation
		End Site
		{
			OFFSET 0.000000 21.880577 0.000000
		}
	}
}
MOTION
Frames: 4
Frame Time: 0.033333
-0.472549 70.322556 1.707793 -1.710689 -7.140064 -3.470601 -0.000000 0.000000 0.000000 -3.444006 5.932254 8.990184 19.780603 8.359714 0.898532 -11.788923 15.917623 -8.491416 -0.000000 0.000000 0.000000 0.000000 0.000000 -0.000000 -1.219633 -6.751285 -2.356596 12.433559 -9.320526 -3.852963 -7.747776 -2.776921 8.435623 -0.000000 -0.000001 -0.000000 0.000000 -0.000000 -0.000000 1.640286 2.123421 2.238131 0.842558 0.283603 -2.398618 0.853487 0.273733 -2.396079 -1.338905 -0.364420 -0.309310 -2.977375 -1.802832 -1.694862 0.000000 -0.000000 -0.000000 0.000000 -0.000000 -0.000000 0.000000 -0.000000 -0.000000 0.000000 -0.000000 0.000000 0.000000 -0.000000 -0.000000 0.000000 -0.000000 0.000000 0.000000 -0.000000 -0.000000 0.000000 -0.000000 -0.000000 0.000000 -0.000000 -0.000000 1.960592 -6.009161 -3.611756 18.171244 -35.797844 -57.579451 -0.000008 -25.755009 0.000000 2.136926 -0.328795 -6.686716 -2.402117 4.870090 15.098813 4.869973 19.561964 1.589537 0.000001 -0.000003 0.000003 -0.181128 -1.097027 -6.956165 0.205731 1.673860 -14.013372 0.000000 -0.000000 -0.000000 0.062155 0.924973 -7.688440 0.172838 1.536115 -12.838902 0.000004 0.000001 -0.000003 0.115914 1.260651 -10.506696 0.186525 1.594913 -13.339523 0.000000 0.000002 -0.000003 2.187019 8.877567 -14.975019 0.201785 -2.385659 -14.480238 0.000002 -0.000001 0.000001 0.000001 -0.000001 -0.000000 11.220420 27.453186 -0.151306 10.486186 40.361910 61.718020 0.000004 27.555322 -0.000019 -35.785345 -19.193347 0.193057 -1.952988 -12.901473 -7.573658 5.585051 -19.316321 -0.939511 -0.000002 0.000000 0.000002 -0.109469 -1.465538 27.164117 0.333557 -2.131702 17.784221 -0.000004 0.000001 -0.000001 0.606877 -2.845754 24.072332 0.326216 -2.108693 17.585814 0.000003 -0.000002 0.000002 0.748633 -3.143478 26.785330 0.283082 -1.967504 16.372911 0.000001 -0.000001 -0.000001 3.040833 -6.478610 35.456984 0.159707 -1.484659 12.278960 0.000002 -0.000000 0.000002 -0.000002 0.000001 0.000001 -0.000000 0.000000 -0.000000 0.000000 -0.000000 0.000000 -0.000000 0.000000 -0.000000 -0.000000 0.000000 -0.000000 -0.000000 0.000000 -0.000000 0.000000 -0.000000 -0.000000 -0.000000 0.000000 -0.000000 -0.000000 0.000000 -0.000000 -0.000000 0.000000 -0.000000 0.000000 -0.000000 -0.000000 -0.000000 0.000000 0.000000 -0.000000 0.000000 0.000000 -0.000000 0.000000 0.000000 
-0.473779 70.286522 1.726511 -1.592075 -7.285041 -3.477054 0.000000 -0.000000 -0.000000 -3.632782 5.492275 9.049148 20.168005 8.069832 0.662338 -12.030413 16.710744 -8.325773 -0.000000 0.000000 0.000000 -0.000000 0.000000 0.000000 -1.589503 -8.507001 -2.618322 12.735830 -8.061163 -3.764441 -7.945851 -2.191667 8.412654 0.000000 0.000000 -0.000000 -0.000000 -0.000002 -0.000001 1.619124 2.169723 2.140712 0.883081 0.290168 -2.330250 0.893671 0.280351 -2.327461 -1.413736 -0.371798 0.281746 -1.343727 -1.264559 -0.678671 0.000000 0.000001 0.000000 0.000000 0.000001 0.000000 0.000000 0.000001 0.000000 0.000000 0.000001 0.000000 0.000000 0.000000 -0.000000 0.000000 0.000001 0.000000 0.000000 0.000000 -0.000000 0.000000 0.000001 0.000000 0.000000 0.000001 0.000000 1.978661 -6.159174 -3.314781 18.349184 -36.683566 -58.800620 -0.000001 -27.385814 0.000006 3.164988 1.716201 -5.320057 -2.402116 4.870093 15.098816 4.869971 19.561962 1.589535 -0.000000 0.000001 -0.000004 -0.194408 -1.007330 -7.679580 0.233440 1.781158 -14.932643 -0.000001 0.000001 0.000000 0.073748 1.007148 -8.376310 0.196307 1.635664 -13.687307 -0.000000 0.000001 0.000001 0.134488 1.356910 -11.319492 0.210534 1.692991 -14.176997 -0.000003 0.000000 -0.000002 2.365194 8.968964 -16.123631 0.226957 -2.291019 -15.290324 -0.000000 0.000000 0.000001 -0.000002 -0.000000 0.000001 11.225743 27.484261 -0.162228 10.946202 40.844268 61.649042 -0.000007 27.993213 0.000005 -36.144265 -19.102806 0.611804 -1.952989 -12.901470 -7.573657 5.585044 -19.316315 -0.939511 -0.000000 0.000001 0.000003 -0.092742 -1.544237 27.800612 0.355190 -2.197950 18.356974 -0.000003 0.000003 0.000001 0.633663 -2.904858 24.606038 0.346578 -2.171887 18.131164 0.000004 -0.000001 0.000001 0.779253 -3.203322 27.338409 0.301345 -2.028610 16.896865 0.000001 0.000001 0.000000 3.120740 -6.526011 36.162474 0.172725 -1.543229 12.771642 -0.000000 -0.000000 0.000002 0.000003 0.000000 -0.000000 -0.000000 0.000000 0.000000 -0.000000 0.000000 0.000001 -0.000000 0.000000 -0.000000 -0.000000 0.000000 -0.000000 -0.000000 0.000000 0.000000 -0.000000 0.000000 0.000000 -0.000000 0.000000 -0.000000 -0.000000 0.000000 -0.000000 -0.000000 0.000000 0.000000 -0.000000 0.000000 0.000000 0.000000 -0.000000 -0.000000 0.000000 -0.000000 -0.000000 0.000000 -0.000000 -0.000000 
-0.488737 70.218941 1.739121 -1.554810 -7.347143 -3.410082 0.000000 0.000000 0.000000 -3.889359 5.236531 9.391610 20.846463 7.430092 -0.147726 -12.513178 17.399077 -7.843030 -0.000000 0.000002 -0.000000 0.000000 -0.000000 -0.000000 -2.322323 -10.704982 -3.068466 13.836391 -6.513699 -3.698697 -8.557433 -1.511345 8.307291 -0.000000 0.000001 0.000000 0.000000 0.000001 -0.000000 1.699347 2.209753 1.978630 0.909234 0.296140 -2.230835 0.919397 0.286329 -2.227930 -1.341154 -0.358688 0.902087 0.706444 -0.564111 0.458677 0.000000 0.000000 0.000000 0.000000 0.000000 0.000000 0.000000 0.000000 -0.000000 0.000000 0.000000 0.000000 -0.000000 0.000001 -0.000000 0.000000 0.000000 0.000000 -0.000000 0.000001 -0.000000 0.000000 0.000000 0.000000 0.000000 0.000000 0.000000 1.980983 -6.193730 -3.159805 18.602700 -37.381844 -60.066603 -0.000016 -29.306689 -0.000017 4.217754 3.803407 -1.630072 -2.402118 4.870091 15.098816 4.869970 19.561966 1.589535 0.000004 -0.000001 -0.000002 -0.192401 -1.021350 -7.566510 0.250874 1.845238 -15.483342 -0.000001 -0.000001 -0.000002 0.075617 1.019637 -8.480820 0.210543 1.692967 -14.176940 -0.000000 0.000001 -0.000001 0.142919 1.398305 -11.669668 0.227536 1.758843 -14.741071 -0.000001 0.000004 0.000001 2.466293 9.018864 -16.770375 0.246579 -2.220801 -15.893876 -0.000002 -0.000001 0.000003 0.000001 0.000001 -0.000001 11.123824 27.361728 -0.148001 11.357821 41.441633 61.745156 -0.000011 28.411591 0.000002 -36.921175 -18.482251 -0.015549 -1.952987 -12.901471 -7.573657 5.585048 -19.316320 -0.939513 -0.000001 0.000000 -0.000001 -0.081469 -1.595048 28.212511 0.373286 -2.251743 18.823277 -0.000004 0.000001 -0.000005 0.652771 -2.946191 24.980582 0.362917 -2.221097 18.557383 0.000000 -0.000003 0.000002 0.803103 -3.248953 27.762042 0.315900 -2.075930 17.303663 0.000004 -0.000000 -0.000004 3.186210 -6.563876 36.736883 0.182968 -1.587701 13.146506 -0.000002 0.000001 -0.000003 -0.000001 -0.000000 0.000001 -0.000000 -0.000000 -0.000000 -0.000000 -0.000000 -0.000000 -0.000000 -0.000000 -0.000000 -0.000000 -0.000000 -0.000000 -0.000000 -0.000000 -0.000000 -0.000000 -0.000000 -0.000001 -0.000000 -0.000000 -0.000000 -0.000000 -0.000000 -0.000000 -0.000000 -0.000000 -0.000000 -0.000000 -0.000000 -0.000001 0.000000 0.000000 0.000000 0.000000 0.000000 0.000000 0.000000 0.000000 0.000000 
-0.526410 70.079224 1.753532 -1.614020 -7.332670 -3.291610 -0.000000 0.000000 -0.000000 -4.350454 5.257233 10.067288 22.086709 6.413894 -1.468958 -13.386625 17.851422 -7.103080 0.000000 0.000000 -0.000000 0.000001 -0.000000 0.000000 -3.435784 -12.359106 -3.638035 15.941035 -5.065283 -3.650682 -9.660976 -1.362653 8.201353 0.000000 -0.000000 0.000000 -0.000000 0.000000 0.000000 1.976611 2.260407 1.785592 0.903445 0.304619 -2.132365 0.913310 0.294281 -2.129570 -0.990711 -0.340340 1.460404 3.012261 0.126735 1.572645 -0.000000 -0.000000 0.000000 -0.000000 -0.000000 0.000000 -0.000000 -0.000000 -0.000000 -0.000000 -0.000000 0.000000 -0.000001 -0.000000 -0.000000 -0.000000 -0.000000 0.000000 -0.000001 -0.000000 -0.000000 -0.000000 -0.000000 0.000000 -0.000000 -0.000000 0.000000 1.950411 -6.007403 -3.277063 19.069972 -37.516703 -60.953141 0.000003 -31.437018 -0.000008 5.039655 5.681862 4.315944 -2.402119 4.870093 15.098816 4.869970 19.561962 1.589536 0.000001 0.000001 0.000000 -0.162605 -1.210775 -6.036589 0.241517 1.811134 -15.190085 -0.000002 0.000001 -0.000002 0.059635 0.906072 -7.530283 0.201653 1.657422 -13.873063 -0.000001 0.000001 0.000001 0.128999 1.329216 -11.085367 0.224653 1.747830 -14.646791 -0.000001 0.000000 -0.000001 2.414222 8.993324 -16.437653 0.252940 -2.198627 -16.084747 -0.000003 -0.000001 0.000001 0.000001 0.000000 0.000000 10.847496 26.968879 -0.086101 11.357426 42.177368 62.313257 -0.000010 28.537452 0.000012 -37.808365 -16.836133 -1.865902 -1.952987 -12.901468 -7.573657 5.585044 -19.316309 -0.939507 0.000001 -0.000001 0.000002 -0.084914 -1.579682 28.088004 0.381285 -2.275067 19.026011 -0.000006 -0.000001 -0.000002 0.652330 -2.945266 24.972252 0.369067 -2.239283 18.715113 -0.000002 -0.000001 -0.000003 0.809226 -3.260569 27.870104 0.322206 -2.095990 17.476369 -0.000001 -0.000000 -0.000003 3.214801 -6.580127 36.986663 0.188012 -1.609145 13.327387 0.000002 -0.000001 -0.000001 0.000001 0.000001 -0.000000 0.000000 -0.000000 0.000000 -0.000000 -0.000000 0.000000 0.000000 -0.000000 0.000000 0.000000 -0.000000 0.000000 0.000000 -0.000000 0.000000 -0.000000 -0.000000 0.000000 0.000000 -0.000000 0.000000 0.000000 -0.000000 0.000000 0.000000 -0.000000 0.000000 -0.000000 -0.000000 0.000000 -0.000000 0.000000 -0.000000 -0.000000 0.000000 -0.000000 -0.000000 0.000000 -0.000000 
